<?xml version="1.0" encoding="UTF-8"?>
<svg width="600" height="150" version="1.1" xmlns="http://www.w3.org/2000/svg">
 <path d="m59.726 38.55 2e-5 -0.0072c0 2.1493 0.51638 4.1768 1.4356 5.9665l-0.16476 0.1111 16.156 23.796 6.8561-0.0494-11.393-16.659 0.35404 3e-3c7.3152 0 13.244-5.8912 13.244-13.161 0-7.27-5.9288-13.161-13.244-13.161s-13.244 5.8913-13.244 13.161zm0 72.9 4e-5 -6e-4c0 7.2701 5.9314 13.161 13.247 13.161 7.3125 0 13.244-5.8913 13.244-13.161 0-3.3009-1.2247-6.3207-3.2469-8.6323l-19.884-31.598h-12.45c-1.632-5.4259-6.6961-9.3811-12.687-9.3811-7.3156 0-13.247 5.8931-13.247 13.16 0 7.2694 5.9313 13.163 13.247 13.163 6.6888 0 12.22-4.9281 13.115-11.33h8.9053l13.501 21.466c-0.16788-5e-3 -0.33264-8e-3 -0.50044-8e-3 -7.3125 0-13.244 5.8913-13.244 13.161zm-49.723-36.451c-0.0027-15.334 12.509-27.768 27.943-27.768 3.1523 0 6.1802 0.51929 9.0053 1.4734-1.2435-3.147-1.9276-6.5695-1.9276-10.154 0-15.337 12.512-27.768 27.946-27.768s27.946 12.431 27.946 27.768c0 3.7065-0.72956 7.24-2.0547 10.473 3.0766-1.1571 6.41-1.7923 9.8948-1.7923 15.434 0 27.946 12.433 27.946 27.77v0.15226l0.014 27.603h-14.802v-27.603h0.0861l-3e-3 -0.15226c0-7.2697-5.9288-13.161-13.244-13.161-7.3157 0-13.244 5.891-13.244 13.161 0 7.2671 5.9314 13.161 13.244 13.161 2.7332 0 5.2718-0.82132 7.3832-2.2332v15.861c-2.352 0.63862-4.8285 0.97867-7.3832 0.97867-3.4849 0-6.8182-0.63203-9.8949-1.7898 1.3248 3.2307 2.0574 6.7669 2.0574 10.471 0 15.337-12.512 27.77-27.946 27.77s-27.946-12.433-27.946-27.77c0-3.5848 0.68134-7.0073 1.9248-10.154-2.8251 0.95431-5.853 1.4734-9.0026 1.4734-15.434 0-27.946-12.433-27.946-27.77" fill="#00a9a1"/>
 <path d="m545.01 46.14c-1.6766 0.43865-3.7164 0.78676-5.7284 0.78676-4.4755 0-7.6705-1.8117-7.6705-4.7971 0-2.8362 2.8316-4.9274 7.1769-4.9274 2.1098 0 4.0192 0.34483 5.9938 1.0667l0.49378-3.2926c-2.2075-0.43864-4.4802-0.78676-6.8135-0.78676-7.5727 0-13.166 2.6406-13.166 7.9406 0 5.7563 7.0745 7.8056 13.199 7.8056 3.1251 0 5.0672-0.33001 6.8135-0.60982l-0.29791-3.1857m-98.361 3.5392h5.626l-0.19505-10.4h0.0658l8.029 10.4h7.6053v-15.22h-5.5934l0.0922 10.334h-0.0658l-7.7682-10.334h-7.801zm46.852 8e-5h6.1244v-15.22h-6.1244zm-79.779 0h6.1243v-15.22h-6.1243zm-41.31-8e-5h15.602v-3.0087h-9.4774v-12.211h-6.1243zm-28.223-3.5395c-1.6766 0.43865-3.7211 0.78676-5.7284 0.78676-4.4756 0-7.6705-1.8117-7.6705-4.7971 0-2.8362 2.8316-4.9274 7.1769-4.9274 2.1097 0 4.0145 0.34483 5.9938 1.0667l0.48843-3.2926c-2.203-0.43864-4.471-0.78676-6.809-0.78676-7.5727 0-13.166 2.6406-13.166 7.9406 0 5.7563 7.0745 7.8056 13.199 7.8056 3.1251 0 5.0672-0.33001 6.809-0.60982l-0.29305-3.1857m219.82 3.5392h6.222l1.8071-3.2508h8.6252l1.7092 3.2508h6.7158l-8.8533-15.22h-7.5028zm15.206-6.129h-5.761l2.962-5.952h0.0658z" fill="#3e7897"/>
 <path d="m590 109.99c-0.7917-4.061-0.99143-8.1222-0.99143-12.179v-19.211c0-15.746-11.387-21.391-24.558-21.391-7.6239 0-14.26 1.0891-20.599 3.6653l0.30203 12.076c4.946-2.771 10.693-3.8608 16.435-3.8608 6.4364 0 11.685 1.8815 11.788 8.914-2.2821-0.39585-5.449-0.69459-8.3226-0.69459-9.5054 0-26.635 1.8815-26.635 17.628 0 11.191 9.1049 16.24 19.309 16.24 7.3258 0 12.277-2.8735 16.338-9.3098h0.19504c0 2.6778 0.30203 5.3465 0.39996 8.1221zm-35.949-16.342c0-4.9507 4.755-6.8322 10.796-6.8322 2.6732 0 5.2487 0.20081 7.5307 0.29792 0 6.0403-4.2613 12.183-10.996 12.183-4.159 0-7.3306-2.0817-7.3306-5.6492m-77.222 16.342h17.828v-21.787c0-11.089 3.7584-16.142 11.089-16.142 4.8529 0 8.2201 3.2694 8.2201 12.97v24.958h17.823v-32.186c0-10.693-5.6446-20.594-19.705-20.594-8.1221 0-15.252 3.2648-18.815 10.693h-0.2008v-9.5055h-16.24v51.593m-7.4046 0c-0.79252-4.061-0.99143-8.1222-0.99143-12.179v-19.211c0-15.746-11.387-21.391-24.558-21.391-7.6239 0-14.26 1.0891-20.599 3.6653l0.29874 12.076c4.9507-2.771 10.693-3.8608 16.435-3.8608 6.441 0 11.69 1.8815 11.788 8.914-2.2774-0.39585-5.4444-0.69459-8.3179-0.69459-9.5054 0-26.639 1.8815-26.639 17.628 0 11.191 9.1096 16.24 19.314 16.24 7.3258 0 12.277-2.8735 16.338-9.3098h0.19504c0 2.6778 0.30203 5.3465 0.39585 8.1221zm-35.945-16.342c0-4.9507 4.7504-6.8322 10.796-6.8322 2.6686 0 5.2441 0.20081 7.5215 0.29792 0 6.0403-4.2567 12.183-10.991 12.183-4.159 0-7.3259-2.0817-7.3259-5.6492m-110.2 16.342h17.823v-21.787c0-11.089 3.7631-16.142 10.102-16.142 5.0484 0 7.1302 4.3592 7.1302 10.199v27.729h17.823v-21.787c0-11.089 3.7631-16.142 10.102-16.142 5.0485 0 7.1303 4.3592 7.1303 10.199v27.729h17.823v-30.403c0-13.962-3.3626-22.378-18.219-22.378-7.3304 0-14.163 2.9714-18.322 9.9015-2.7758-6.7344-8.8115-9.9015-16.142-9.9015-8.1175 0-15.248 3.2648-18.815 10.693h-0.19538v-9.5055h-16.24v51.593m-6.3341-20.585v-3.2693c0-15.35-6.93-28.917-26.043-28.917-16.044 0-27.627 9.9013-27.627 26.938 0 17.032 12.971 27.035 30.002 27.035 6.6366 0 13.171-0.99143 18.913-3.2693v-12.579c-5.3419 2.8735-10.889 3.9632-15.741 3.9632-8.7138 0-14.163-2.771-15.15-9.9013zm-35.847-10.102c0.39601-5.9426 3.465-10.795 9.9013-10.795 7.1303 0 9.9013 4.8529 9.9013 10.795zm-124.22 30.687h18.713l5.449-14.754h25.946l5.1462 14.754h20.208l-26.644-69.123h-22.574zm45.748-27.827h-17.33l8.914-27.035h0.20064zm35.102 27.827h17.823v-74.269h-17.823z" fill="#00a9a1"/>
</svg>
